<mxfile host="app.diagrams.net" modified="2022-05-12T08:05:55.733Z" agent="5.0 (Windows NT 10.0; Win64; x64) AppleWebKit/537.36 (KHTML, like Gecko) Chrome/99.0.4844.84 Safari/537.36" etag="PzHHAHiftgr41KL1XsgF" version="18.0.2" type="github">
  <diagram id="iuuxBsBXsF5IfK95P_ry" name="Page-1">
    <mxGraphModel dx="1038" dy="515" grid="1" gridSize="10" guides="1" tooltips="1" connect="1" arrows="1" fold="1" page="1" pageScale="1" pageWidth="827" pageHeight="1169" math="0" shadow="0">
      <root>
        <mxCell id="0" />
        <mxCell id="1" parent="0" />
        <mxCell id="TeuKUSrxY9drWF6u20an-8" style="edgeStyle=orthogonalEdgeStyle;rounded=0;orthogonalLoop=1;jettySize=auto;html=1;entryX=0;entryY=0.5;entryDx=0;entryDy=0;" edge="1" parent="1" source="TeuKUSrxY9drWF6u20an-1" target="TeuKUSrxY9drWF6u20an-2">
          <mxGeometry relative="1" as="geometry" />
        </mxCell>
        <mxCell id="TeuKUSrxY9drWF6u20an-1" value="frame 管道" style="rounded=0;whiteSpace=wrap;html=1;" vertex="1" parent="1">
          <mxGeometry x="60" y="122" width="120" height="60" as="geometry" />
        </mxCell>
        <mxCell id="TeuKUSrxY9drWF6u20an-9" style="edgeStyle=orthogonalEdgeStyle;rounded=0;orthogonalLoop=1;jettySize=auto;html=1;entryX=0;entryY=0.5;entryDx=0;entryDy=0;" edge="1" parent="1" source="TeuKUSrxY9drWF6u20an-2" target="TeuKUSrxY9drWF6u20an-3">
          <mxGeometry relative="1" as="geometry" />
        </mxCell>
        <mxCell id="TeuKUSrxY9drWF6u20an-10" style="edgeStyle=orthogonalEdgeStyle;rounded=0;orthogonalLoop=1;jettySize=auto;html=1;entryX=0;entryY=0.75;entryDx=0;entryDy=0;" edge="1" parent="1" source="TeuKUSrxY9drWF6u20an-2" target="TeuKUSrxY9drWF6u20an-5">
          <mxGeometry relative="1" as="geometry">
            <Array as="points">
              <mxPoint x="410" y="152" />
              <mxPoint x="410" y="180" />
              <mxPoint x="460" y="180" />
            </Array>
          </mxGeometry>
        </mxCell>
        <mxCell id="TeuKUSrxY9drWF6u20an-11" style="edgeStyle=orthogonalEdgeStyle;rounded=0;orthogonalLoop=1;jettySize=auto;html=1;entryX=0.003;entryY=0.637;entryDx=0;entryDy=0;entryPerimeter=0;" edge="1" parent="1" source="TeuKUSrxY9drWF6u20an-2" target="TeuKUSrxY9drWF6u20an-6">
          <mxGeometry relative="1" as="geometry" />
        </mxCell>
        <mxCell id="TeuKUSrxY9drWF6u20an-2" value="分流程序" style="rounded=0;whiteSpace=wrap;html=1;" vertex="1" parent="1">
          <mxGeometry x="240" y="122" width="120" height="60" as="geometry" />
        </mxCell>
        <mxCell id="TeuKUSrxY9drWF6u20an-3" value="安全帽检测" style="rounded=0;whiteSpace=wrap;html=1;" vertex="1" parent="1">
          <mxGeometry x="460" y="50" width="120" height="60" as="geometry" />
        </mxCell>
        <mxCell id="TeuKUSrxY9drWF6u20an-7" style="edgeStyle=orthogonalEdgeStyle;rounded=0;orthogonalLoop=1;jettySize=auto;html=1;entryX=0.5;entryY=0;entryDx=0;entryDy=0;" edge="1" parent="1" source="TeuKUSrxY9drWF6u20an-4" target="TeuKUSrxY9drWF6u20an-2">
          <mxGeometry relative="1" as="geometry" />
        </mxCell>
        <mxCell id="TeuKUSrxY9drWF6u20an-4" value="场景设备配置" style="rounded=0;whiteSpace=wrap;html=1;" vertex="1" parent="1">
          <mxGeometry x="240" y="20" width="120" height="60" as="geometry" />
        </mxCell>
        <mxCell id="TeuKUSrxY9drWF6u20an-5" value="签到" style="rounded=0;whiteSpace=wrap;html=1;" vertex="1" parent="1">
          <mxGeometry x="460" y="140" width="120" height="60" as="geometry" />
        </mxCell>
        <mxCell id="TeuKUSrxY9drWF6u20an-6" value="..." style="rounded=0;whiteSpace=wrap;html=1;" vertex="1" parent="1">
          <mxGeometry x="460" y="220" width="120" height="60" as="geometry" />
        </mxCell>
      </root>
    </mxGraphModel>
  </diagram>
</mxfile>
